<?xml version="1.0" encoding="utf-8"?>
<!-- Generator: Adobe Illustrator 20.0.0, SVG Export Plug-In . SVG Version: 6.00 Build 0)  -->
<!DOCTYPE svg PUBLIC "-//W3C//DTD SVG 1.1//EN" "http://www.w3.org/Graphics/SVG/1.1/DTD/svg11.dtd">
<svg version="1.1" id="Layer_1" xmlns="http://www.w3.org/2000/svg" xmlns:xlink="http://www.w3.org/1999/xlink" x="0px" y="0px"
	 width="71.2px" height="79.2px" viewBox="0 0 71.2 79.2" style="enable-background:new 0 0 71.2 79.2;" xml:space="preserve">
<path d="M52,13.1c0,0-5.1-2.4-6.5,0.5c-1.3,2.7,3.2,5.6,3.2,5.6c7.8,4.3,14.6,12.1,15.9,20.9c-3.9-2.6-9.3-7.8-12.5-12.3
	c-5-6.9-7.3,1.8-2,5.6c8.5,6.5,3,5.2-5.6,10.1c-7.2,4.1-2.4,12.1-2.4,12.1c-7.4-1.3-13.3-5.3-16.3-10.7c1.5,0.6,3.2,1.2,4.8,1.7
	c8.8,2.6,5.6-5.5-3.3-6.5c-1.3-0.1-3.8-3.2-3.8-3.7c2.1,2.2,5.9,3.5,9.1,3.9c8.2,1,5.3-5.1-1.9-5.8C28,34,27,34.1,24.7,31.7
	c5.5,0.4,14.2-6,11-13c1-3.5-1-7.4-5.3-10.8c-0.1-2.9-0.5-5.8-0.7-6.7c-0.3-1.1-1.7,2-3.2,5.6c-0.7-0.1-1.5-0.2-2.3-0.2
	c-4.2,0-8.1,1.6-10.9,4.2c-2.5-1-6.1-2-7.6-2C4.3,9,7.4,12.9,9.9,15.6c-0.8,1.8-1.2,3.7-1.2,5.7c0,0.3,0,0.5,0,0.8
	c-0.1,0.1-0.1,0.2-0.2,0.4c-4.4,5.8-6.9,13-6.9,20.5c0,18.8,15.3,34.1,34.1,34.1S69.7,61.8,69.7,43C69.7,30.6,62.9,19.1,52,13.1z
	 M33.8,21l-0.5,1.3l-0.5,1.3l-1.3-0.4l-1.3-0.4l1.8-0.9L33.8,21z M30.2,13.5c1,0,1.8,0.8,1.8,1.8c0,1-0.8,1.8-1.8,1.8
	c-1,0-1.8-0.8-1.8-1.8C28.5,14.3,29.2,13.5,30.2,13.5z M21.1,18.8c0-1,0.8-1.8,1.8-1.8c1,0,1.8,0.8,1.8,1.8s-0.8,1.8-1.8,1.8
	C21.9,20.5,21.1,19.7,21.1,18.8z M59.6,57.9c0.6-2.6,0.4-5.5-0.8-8.6c1.2-2.6,4.6-5,5.8-6.8c0,0.2,0,0.4,0,0.6
	C64.7,48.5,62.8,53.6,59.6,57.9z"/>
</svg>
