<?xml version="1.0" encoding="utf-8"?>
<!-- Generator: Adobe Illustrator 19.1.0, SVG Export Plug-In . SVG Version: 6.00 Build 0)  -->
<svg version="1.1" id="Layer_1" xmlns="http://www.w3.org/2000/svg" xmlns:xlink="http://www.w3.org/1999/xlink" x="0px" y="0px"
	 viewBox="0 0 936 720" enable-background="new 0 0 936 720" xml:space="preserve">
<g>
	<path fill="#181616" d="M469.5,540.7c-99,0.2-179.2-80.1-179.4-179.7c-0.3-98.6,80.5-178.9,180.1-178.9
		c97.9-0.1,178.3,80.7,178.5,179.1C648.8,460,568.5,540.5,469.5,540.7z M578,317c0.4,2.6,1.7,3.3,4.2,2.4c6.1-2.2,12.2-4.3,18.3-6.4
		c1.6-0.5,3.3-0.8,3.5-3c0.3,0,0.7,0,1,0c0.4,0.2,0.9,0.8,1.2,0.7c6.1-2.1,12.2-4.1,18.2-6.5c3.8-1.5,2.6-3.9,0.6-6.2
		c-1.1-3.1-1.8-6.4-3.3-9.2c-6.4-12.1-13-24-22.2-34.2c-4.2-4.7-7.8-10.4-14.3-12.6c-0.1-4.9-4.3-6.4-7.4-8.8
		c-0.4-0.3-0.8-0.7-1.1-1c-0.8-1.6-2.1-2.6-3.8-3.1c-0.4-0.3-0.8-0.6-1.1-0.9c-0.5-1.3-1.5-1.9-2.8-2.1c-0.4-0.3-0.8-0.6-1.2-0.9
		c-0.6-1.2-1.6-1.9-2.9-2l0,0c-4.3-3-8-7-13.7-7.3c-0.3-1.2-1-2-2.1-2.6c-19.8-10.5-40.7-17.3-63.1-19.1c-2.7-2-5.7-0.8-8.6-0.8
		c-1.5,0-2.1,1.3-2.4,2.7c-0.9,6.1-1.3,12.1-1,18.3c0.1,1.5,0.3,2.7,2.1,2.8c1,0,2,0,3,0c0.6,0,1.3,0.1,1.9,0.1c0,0.6,0,1.2,0,1.9
		c-1.3-0.3-2.6-0.5-3.8-0.8c-2-0.3-2.8,0.5-3.2,2.6c-1.6,6.9-0.6,13.9-0.8,20.8c-0.1,2.6,2,3.2,4.1,3.3c2.3,0.1,4.6,0.1,6.8,0.2
		c0,0.4,0,0.7,0,1.1c-1.7,0-3.3,0-5,0c-1,0-2-0.1-3-0.1c-1.7-0.1-2.9,0.2-3,2.3c-0.3,6.8-0.6,13.5-1,20.3c-0.1,2.2,0.5,3.6,3,3.3
		c1,0,2,0.1,2.9,0.1c0,0.3,0,0.6,0,0.9c-4.7-0.8-6.5,1-6.1,5.9c0.4,4.3-0.6,8.8,0.3,12.9c1.1,5-0.6,6.6-5.1,6.8
		c-1,0.1-2.1,0.1-3.1,0.2c-0.4-0.5-0.7-0.4-1,0.1c-1.1,0.2-2.3,0.4-3.4,0.6c-29,5.7-47.9,25.8-52,55.1c-1.4,10.2,1,19.8,3.5,29.5
		c-7.1,1.3-13.7,4.4-20.5,6.4c-1.8,0.5-2.7,1.7-2.4,3.7c0,0.7,0,1.3,0,2c-0.7-0.4-1.3-0.7-2-1.1c-0.2-1.8-1.4-2.3-2.8-1.8
		c-6.5,2.3-12.9,4.6-19.3,7.1c-1.8,0.7-2.6,2-0.9,3.8c0,0.7,0,1.3,0,2c-0.3,0.3-0.6,0.7-1,1c-0.3-0.7-0.7-1.3-1-2
		c-0.3-2.6-1.7-3.3-4.1-2.5c-6.2,2.2-12.3,4.3-18.5,6.5c-2,0.7-3.2,1.8-1.4,3.9c0,0.3,0,0.7,0,1c-0.7,0-1.3,0-2,0l0,0
		c-0.3-3-1.9-3-4.2-2.1c-5.1,2-10.2,4.1-15.4,5.7c-3.9,1.2-4.1,3.3-2.4,6.4c3.3,8.9,7.7,17.1,12.6,25.2
		c8.1,13.3,18.1,25.1,29.4,35.8c1.5,1.5,2.8,3.3,4.9,4.1c8.1,7.6,17,14,27,18.8c0.3,1,1.1,1.1,2,1.2c21.1,12,43.7,18.9,68,20
		c3.4,1.8,6.3,1.8,6.8-2.7c0.7-5.7,0.8-11.4,1.1-17.2c0.1-2.2-0.3-4-3-4.1c-1,0-2,0-3,0c-1,0-2-0.1-2.9-0.1c0-0.6,0-1.2,0-1.8
		c1.9,0.3,3.9,0.5,5.8,0.8c2.5,0.3,3.2-0.9,3.1-3.2c-0.1-6.5-0.1-12.9,0-19.4c0-2.2-0.6-3.6-3.1-3.3c-0.7,0-1.3,0-2,0
		c5.2-2.8,3.9-7.8,4-12.2c0.1-3.5-0.2-7,0.1-10.5c0.2-3.8-1-5.8-5.1-5.3c0-0.7,0-1.3,0-2c1,0,2,0,3,0c2.8,1.8,3-0.2,3-2.2
		c0-6,0.1-11.9,0-17.9c-0.1-2.5,0.4-4.2,3.4-4.2c2.3-0.2,4.6-0.4,6.9-0.6c25.4-2.9,43.1-16.3,52.7-39.9c6.3-15.3,5.2-30.9-0.4-46.2
		c8.6,0.5,15.7-4.2,23.5-6.5c1.1-0.3,0.8-1.7,0.9-2.6c1.5,0.8,3,1.3,4.7,0.7c6-2.2,12-4.4,18.1-6.4c1.8-0.6,2.3-1.6,2.1-3.3
		c0-0.7,0-1.3-0.1-2C577.3,317,577.6,317,578,317z"/>
	<path fill="#E3CA26" d="M411,384c-2.5-9.7-4.9-19.3-3.5-29.5c4.1-29.3,23-49.4,52-55.1c1.1-0.2,2.3-0.4,3.4-0.6c0.3,0,0.7,0,1-0.1
		c1-0.1,2.1-0.1,3.1-0.2c12.4-0.4,23.8,3,34.8,8.4c1.3,1,2.7,2,4,2.9l0.4,0.3c0.5,0.3,0.9,0.5,1.4,0.8c1.6,1.3,3.2,2.7,4.8,4
		c1.2,1.3,2.4,2.6,3.6,4c4.7,5.5,8.5,11.6,11.6,18.1c5.6,15.4,6.6,30.9,0.4,46.2c-9.6,23.6-27.3,37-52.7,39.9
		c-2.3,0.3-4.6,0.4-6.9,0.6c-7.2-0.9-14.5-1.2-21.2-4.3c-1-0.5-2.1-0.9-3.1-1.4c-1.4-0.7-2.7-1.4-4.1-2.1c-4.3-2.8-8.6-5.5-12.9-8.3
		c-4.2-6.1-9.4-11.4-13.1-17.9C413,388,412,386,411,384z M469.7,409.1c26.4,0,48-21.5,48-48c0-26.3-21.7-48-48-48
		c-26.5,0-47.9,21.4-47.9,48C421.8,387.7,443.1,409,469.7,409.1z"/>
	<path fill="#404043" d="M477.1,218.1c1.3,0.3,2.6,0.5,3.8,0.8c11.1,0.7,21.9,3,32.6,6.3c8.4,2.6,16.2,6.7,24.5,9.8c0,0,0,0,0,0
		c0.4,0.8,0.7,1.5,1.1,2.3c-0.5,1.2-0.9,2.5-1.4,3.7c-2.1,0.6-2.5,2.3-2.6,4.2c-1.1,2.3-2.3,4.5-3.4,6.8c-2.1,0.6-2.5,2.3-2.6,4.2
		c-0.2,0.6-0.4,1.2-0.6,1.8c-0.5,0.4-1,0.7-1.5,1.1c-13.4-7.5-27.7-12.2-43-14c-2.3-0.1-4.6-0.1-6.9-0.2
		C477.1,236,477.1,227,477.1,218.1z"/>
	<path fill="#424244" d="M460,478c0.7,0,1.3,0,2,0c0,8.6,0,17.3-0.1,25.9c-1.9-0.3-3.9-0.5-5.8-0.8c-4.9-0.7-9.9-1.2-14.7-2.2
		c-14.2-2.9-27.9-7.2-40.3-15c4.1-7.3,8.1-14.7,12.2-22c1.8,0.8,3.6,1.5,5.4,2.4c11.5,5.6,23.6,9.4,36.4,10.6
		C456.5,477.9,458.2,478.1,460,478z"/>
	<path fill="#424244" d="M456,504.9c1,0,2,0.1,2.9,0.1c0,2,0.1,4,0,6c-0.6,10.6-5.8,15.3-15.4,13.8c-3.9-0.6-7.8-1.4-11.6-2.5
		c-12.5-3.4-24.7-7.8-36.1-14c-2.3-1.3-4.8-2.9-6.8,0.6c-0.9,0-1.7-0.2-2-1.2c0.8-1,1.8-2,2.5-3c3.7-5.6,8-10.9,9.3-17.7
		c4.9,3,10.2,5.4,15.6,7.6C427.7,500.1,441.5,503.9,456,504.9z"/>
	<path fill="#424244" d="M481,217c-0.6,0-1.3-0.1-1.9-0.1c-0.5-3.9,0.6-7.6,1.4-11.3c1.3-5.7,8.1-8.2,16.7-6.4
		c15.7,3.4,31.1,7.8,45.4,15.5c2.5,1.4,5.1,2.5,8,2.5c-3.2,5.9-6.3,11.8-9.5,17.7c-1,0-2,0-3,0c0,0,0,0,0,0c0-1.4-1-2-2.1-2.5
		C518.6,223.8,500.4,218.5,481,217z"/>
	<path fill="#404043" d="M479,246.1c1.7,0,3.3,0,5,0c0.7,0.3,1.5,0.7,2.2,0.9c13.6,2.3,26.7,6.3,38.8,13.1c0.1,1.9-0.8,3.5-1.7,5.1
		c-3.1,6-6.3,11.9-9.5,17.9c-1,0-1.9-0.1-2.9-0.1l0,0c-0.4-0.9-1.1-1.1-2-1l0,0c-0.4-0.9-1.1-1.1-2-1l0,0c-0.3-0.3-0.7-0.7-1-1l0,0
		c-1.3-1.6-3-2.1-5-2l0,0c-1.7-2.1-4.3-2.4-6.6-2.9c-5.1-1.2-10.2-2.1-15.3-3.1C477,263.3,479.1,254.7,479,246.1z"/>
	<path fill="#363537" d="M585.3,241.9c6.5,2.2,10.1,7.9,14.3,12.6c9.1,10.2,15.8,22.1,22.2,34.2c1.5,2.9,2.2,6.1,3.3,9.2
		c-6.1,5.2-13.2,8.3-21,10c-0.9-1.9-2.2-3.7-2.1-5.9c1-0.1,2,0.1,3-0.2c12-3.2,13.9-8.5,7.3-19.1c-5.2-8.3-10.9-16.2-17.6-23.3
		c-4.2-4.5-7.8-9.9-13.9-12.4C581.7,244.7,583.7,243.5,585.3,241.9z"/>
	<path fill="#363537" d="M550.5,217.3c-2.9,0-5.5-1.1-8-2.5c-14.3-7.7-29.7-12.2-45.4-15.5c-8.5-1.8-15.4,0.7-16.7,6.4
		c-0.8,3.7-1.9,7.4-1.4,11.3c-1,0-2,0-3,0c0-1.3-0.2-2.6,0-3.9c1.1-7.5-0.1-16.2,10-19c22.4,1.8,43.4,8.6,63.1,19.1
		c1.1,0.6,1.8,1.4,2.1,2.6C551,216.2,550.7,216.7,550.5,217.3z"/>
	<path fill="#363537" d="M355.1,485c-11.3-10.7-21.4-22.4-29.4-35.8c-4.9-8-9.3-16.3-12.6-25.2c0.9-0.4,1.9-0.6,2.6-1.2
		c5.5-5,12.5-6.7,19.4-8.8c0,0,0,0,0,0c0.7,1.3,1.1,2.5,1,4c-3.8-0.3-7,1.7-10.3,3.2c-7.1,3.2-8.4,6.5-4.8,13.4
		c4.8,9.4,10.9,18.1,17.6,26.3c5.8,7,11.9,13.7,17.8,20.5C355.9,482.6,355.5,483.8,355.1,485z"/>
	<path fill="#363537" d="M389,509c2-3.5,4.5-1.9,6.8-0.6c11.4,6.2,23.6,10.6,36.1,14c3.8,1,7.7,1.8,11.6,2.5
		c9.6,1.5,14.8-3.2,15.4-13.8c0.1-2,0-4,0-6c1,0,2,0,3,0c0.2,8.4,0.3,16.7-5,24C432.7,527.9,410.1,521,389,509z"/>
	<path fill="#AFB0B2" d="M398.8,487.1c-1.3,6.8-5.6,12.1-9.3,17.7c-0.7,1.1-1.6,2-2.5,3c-10-4.8-18.9-11.2-27-18.8
		c-1.5-6.5,6.1-17.9,13.3-19.7c-0.4,0.9-0.8,1.7-1.2,2.6c-2.8,2.3-5.9,4.3-7,8c-0.1,0.3-0.1,0.6-0.1,0.8c-3.5,0.7-3.5,3.5-2.7,5.8
		c1.1,3.1,3.4,5.5,6.8,6.5c0.3,0.3,0.7,0.6,1,1c0.6,1.3,1.6,2,3,2c0.3,0.1,0.6,0.1,0.8,0.1c0.2,1.2,0.9,1.9,2.2,1.9
		c0.3,0.1,0.6,0.1,0.8,0.1c4.1,5,8.4,5.4,11.9,0.5c2.6-3.5,5.3-7.1,6.2-11.6c0-0.7,0-1.3-0.1-2c0.8-1.7,2.3-2.1,4-2
		c-0.3,0.6-0.7,1.3-1,1.9c-0.5,0.2-1.7,0-1.4,0.8c0.2,0.5,1.4,1.3,2.4,0.4l-0.1,0C398.9,486.4,398.8,486.7,398.8,487.1z"/>
	<path fill="#363537" d="M414,390c3.6,6.5,8.8,11.8,13.1,17.9c-1.6,0.6-3.1,1.2-4.7,1.9c-3.3-3.9-6.4-8-9.9-11.7
		c-5.6-5.8-16-5.2-21.5,1c-0.7-0.7-1.3-1.4-2-2c-0.3-0.3-0.7-0.7-1-1l0,0c0-0.7,0-1.3,0-2C396.4,391,404.7,387.2,414,390z"/>
	<path fill="#292728" d="M501.8,307c-11-5.3-22.4-8.7-34.8-8.4c4.5-0.2,6.2-1.9,5.1-6.8c-0.9-4.1,0.1-8.6-0.3-12.9
		c-0.5-4.9,1.4-6.7,6.1-5.9c0,0.3,0,0.7,0,1c-2.1,0.3-2,1.8-2,3.4c0,2.3,0,4.7,0,7c0,8.6,1.1,9.9,9.4,12.9c5.6,2,11.1,4.5,16.6,6.7
		C501.9,305,501.9,306,501.8,307z"/>
	<path fill="#969798" d="M550.5,217.3c0.3-0.5,0.5-1,0.8-1.5c5.7,0.3,9.4,4.3,13.7,7.3c-2.1,0.2-3.8-0.9-5.5-1.9
		c-3.7-2.1-6.8-1.3-9,2.1c-2.3,3.4-4.3,7-6.1,10.7c-0.6,1.3-1.1,3.3,1.2,4.1c1.1,0.6,1.5,1.9,0,1.8c-3.5-0.3-4,2.2-5.2,4.3
		c-2.4,4.3-4.7,8.6-7,13c-0.8,1.5-1.6,2.9-3.4,3.3c-0.5-0.8-1-1.6-1.5-2.4c0.2-0.6,0.4-1.2,0.6-1.8c1.9-0.7,2.6-2.2,2.6-4.2
		c1.1-2.3,2.3-4.5,3.4-6.8c1.9-0.8,2.6-2.2,2.6-4.2c0.5-1.2,0.9-2.5,1.4-3.7c0.9-0.5,3.8,0.6,1.9-2.3
		C544.2,229.1,547.3,223.2,550.5,217.3z"/>
	<path fill="#AFB0B2" d="M545.5,238c-2.3-0.8-1.9-2.8-1.2-4.1c1.8-3.7,3.8-7.3,6.1-10.7c2.2-3.4,5.3-4.2,9-2.1
		c1.7,1,3.4,2.1,5.5,1.9c0,0,0,0,0,0c0.1,1.9,1.5,2,2.9,2c0.4,0.3,0.8,0.6,1.2,0.9c0,2,1.3,2.1,2.8,2.1c0.4,0.3,0.8,0.6,1.1,0.9
		c0.1,2.5,1.7,3.1,3.8,3.1c0.4,0.3,0.8,0.7,1.1,1c0.1,0.8,0,1.9,0.4,2.4c4.5,4.5,1.9,7.7-1.5,11.3c-2.7,2.8-5.7,5.5-6.9,9.3
		c-0.6-0.1-1.2-0.2-1.7-0.3c-0.8-0.9-1.6-1.7-2.4-2.6c4.9-1.9,7.9-5.9,10.6-10c1.4-2.2,1.3-4.8-0.7-6.9c-4.6-4.9-9.9-8.8-15.6-12.2
		c-3.5-2.1-6.4-1.2-8.6,2.1C549,229.8,546.6,233.6,545.5,238z"/>
	<path fill="#292728" d="M527.6,337.1c-3.1-6.5-6.9-12.6-11.6-18.1c0.1-0.8,0.2-1.6,1-2c3.7,2.4,5.7,6.3,8.4,9.6
		c3,3.8,6.1,6.2,11.8,4.8c4.6-1.1,8.9-3.6,13.8-3.4c0.3,0,0.7,0,1,0c0,0,0,0,0,0c-0.1,1,0.2,2.3-0.9,2.6
		C543.3,332.9,536.2,337.6,527.6,337.1z"/>
	<path fill="#363537" d="M444,418.2c1,0.5,2.1,0.9,3.1,1.4c0.4,3.8,3.9,3,6.1,3.9c6.5,2.6,8.5,4.8,8.8,11.6c0.2,4.3,0,8.6,0,13
		c-1,0-2,0-3,0c0,0,0-0.1,0-0.1c1.5-12.7-2.1-22-16.1-24.6c-1.8-0.3-3.9-1.3-4.2-3.8c0.2-0.2,0.4-0.4,0.6-0.7
		C440.8,418.1,442.9,421.6,444,418.2z"/>
	<path fill="#363537" d="M460,478c-1.8,0.1-3.5-0.1-5-1c0-0.6,0-1.3,0-1.9c3.4,0.5,4.2-1.2,4.1-4.3c-0.2-6.9-0.1-13.8-0.1-20.7
		l0-0.1c4-0.5,5.3,1.5,5.1,5.3c-0.2,3.5,0,7-0.1,10.5C463.9,470.3,465.2,475.2,460,478z"/>
	<path fill="#292728" d="M462,448.1c0-4.3,0.1-8.6,0-13c-0.2-6.8-2.2-9-8.8-11.6c-2.2-0.9-5.7-0.1-6.1-3.9c6.7,3.1,14,3.3,21.2,4.3
		c-2.9,0-3.4,1.7-3.4,4.2c0.1,5.9,0.1,11.9,0,17.9C465,447.9,464.8,449.9,462,448.1z"/>
	<path fill="#232121" d="M481,217c19.4,1.4,37.6,6.8,55,15.5c1.1,0.5,2.1,1.1,2.1,2.5c-8.2-3-16-7.1-24.5-9.8
		c-10.6-3.3-21.4-5.7-32.6-6.3C481,218.3,481,217.7,481,217z"/>
	<path fill="#232121" d="M398.8,487.1c0.1-0.3,0.1-0.7,0.2-1c0.7,0,1.4-0.1,2.1-0.1c12.4,7.8,26.1,12.2,40.3,15
		c4.9,1,9.8,1.5,14.7,2.2c0,0.6,0,1.2,0,1.8c-14.5-1.1-28.3-4.9-41.7-10.3C409,492.5,403.7,490.1,398.8,487.1z"/>
	<path fill="#232121" d="M477.1,218.1c0,8.9,0,17.9,0,26.8c-2.1-0.2-4.2-0.7-4.1-3.3c0.2-6.9-0.7-13.9,0.8-20.8
		C474.4,218.6,475.1,217.8,477.1,218.1z"/>
	<path fill="#363537" d="M576.9,317c0,0.7,0,1.3,0.1,2c-1.7,0-3.2,0.3-4.8,0.9c-6.7,2.5-13.4,4.8-20.1,7.1c0-0.3,0-0.7,0-1
		c-0.3-0.7-0.6-1.4-0.9-2.1c2.6-1,5.2-2,7.7-3c5.4-2.3,11.3-3.3,16.1-6.9c0.4,0,0.8,0,1.2,0l0,0C576,315.1,575.8,316.2,576.9,317z"
		/>
	<path fill="#363537" d="M363,406c0-0.7,0-1.3,0-2c1.3-1.4,3.2-1.5,4.9-2.1c6.1-2.3,12.1-4.7,18.2-7c0.7,0.4,1.3,0.7,2,1.1
		c0,0,0,0,0,0c0,0.7,0.1,1.3,0.1,2c0,0.3,0,0.7,0,1c-2.9,0-5.6,1-8,2.3c-4.9,2.6-11.1,2.2-15.1,6.8C364.3,407.4,363.7,406.7,363,406
		z"/>
	<path fill="#292728" d="M486,194c-10.1,2.8-8.9,11.5-10,19c-0.2,1.3,0,2.6,0,3.9c-1.8-0.1-2-1.3-2.1-2.8c-0.2-6.1,0.2-12.2,1-18.3
		c0.2-1.5,0.8-2.7,2.4-2.7C480.3,193.2,483.3,192,486,194z"/>
	<path fill="#363537" d="M361,405c0.3,0.7,0.7,1.3,1,2c0,0.4-0.1,0.7-0.1,1.1c-8,2.7-15.9,5.3-23.9,8c-0.4-0.7-0.7-1.4-1.1-2
		c0-0.3,0-0.7,0-1C345,410.5,352.7,406.6,361,405z"/>
	<path fill="#363537" d="M479,246.1c0.1,8.6-2.1,17.2,0,25.9c-0.3,0-0.7,0.1-1,0.1c-1,0-2-0.1-2.9-0.1c0.3-8.6-0.9-17.4,1-25.9
		C477,246.1,478,246.1,479,246.1z"/>
	<path fill="#292728" d="M457,529c5.3-7.2,5.1-15.6,5-24c2.7,0.1,3.1,2,3,4.1c-0.3,5.7-0.4,11.5-1.1,17.2
		C463.3,530.8,460.4,530.8,457,529z"/>
	<path fill="#969798" d="M570,256c1.3-3.9,4.3-6.5,6.9-9.3c3.4-3.5,6-6.8,1.5-11.3c-0.5-0.5-0.3-1.6-0.4-2.4
		c3.1,2.4,7.3,3.9,7.4,8.8c-1.6,1.6-3.7,2.8-4.5,5c-4,2.8-6.6,6.9-9.9,10.5c-0.3,0-0.6,0-0.9-0.1C570.1,256.9,570,256.5,570,256z"/>
	<path fill="#292728" d="M335,414c-6.8,2.1-13.9,3.7-19.4,8.8c-0.7,0.6-1.7,0.8-2.6,1.2c-1.7-3.1-1.5-5.2,2.4-6.4
		c5.2-1.6,10.3-3.7,15.4-5.7C333.1,411,334.7,411,335,414z"/>
	<path fill="#292728" d="M604,308c7.8-1.7,14.9-4.8,21-10c2,2.3,3.2,4.7-0.6,6.2c-6,2.3-12.1,4.4-18.2,6.5c-0.3,0.1-0.8-0.4-1.2-0.7
		C604.7,309.3,604.3,308.6,604,308z"/>
	<path fill="#232121" d="M414,390c-9.3-2.8-17.5,1-25.9,4.1c-0.3-1.9,0.6-3.2,2.4-3.7c6.9-2,13.4-5.1,20.5-6.4
		C412,386,413,388,414,390z"/>
	<path fill="#232121" d="M525,260.1c-12.1-6.8-25.2-10.8-38.8-13.1c-0.8-0.1-1.5-0.6-2.2-0.9c0-0.4,0-0.7,0-1.1
		c15.3,1.8,29.6,6.5,43,14c0.1,0.5,0.9,1.2,0.2,1.5C526.6,260.8,525.8,260.3,525,260.1z"/>
	<path fill="#292728" d="M604,310c-0.1,2.2-1.9,2.5-3.5,3c-6.1,2.1-12.2,4.2-18.3,6.4c-2.5,0.9-3.8,0.1-4.2-2.4c0,0,0,0,0,0
		c5.7-1,11-3.1,16.3-5.2c2.6-1,6-0.8,7.7-3.8C602.7,308.7,603.3,309.3,604,310z"/>
	<path fill="#292728" d="M361,405c-8.4,1.6-16,5.5-24.1,8c-1.8-2.1-0.6-3.2,1.4-3.9c6.2-2.2,12.4-4.3,18.5-6.5
		C359.4,401.6,360.7,402.4,361,405z"/>
	<path fill="#232121" d="M337,414c0.4,0.7,0.7,1.4,1.1,2c1.9,5.8,4.8,11.2,8,16.4c3.8,6.3,8,12.4,12,18.6c-4-0.7-4.9-4.6-7-7.2
		c-6.2-7.8-9.7-17.4-15-25.8c0.1-1.5-0.4-2.7-1-4C335.7,414,336.3,414,337,414z"/>
	<path fill="#232121" d="M461.9,503.9c0-8.6,0-17.3,0.1-25.9c2.5-0.3,3.1,1.1,3.1,3.3c-0.1,6.5-0.1,12.9,0,19.4
		C465,503,464.4,504.3,461.9,503.9z"/>
	<path fill="#969798" d="M373.2,469.4c-7.1,1.8-14.8,13.2-13.3,19.7c-2.1-0.8-3.4-2.6-4.9-4.1c0.4-1.2,0.8-2.4,1.2-3.6
		c1.3-1.3,2.5-2.7,3.9-3.8c4-3.2,5.9-8.5,10.8-10.7c0.7,0.7,1.3,1.3,2,2l0.3,0.2L373.2,469.4z"/>
	<path fill="#292728" d="M552,327c6.7-2.4,13.4-4.6,20.1-7.1c1.6-0.6,3.2-0.9,4.8-0.9c0.2,1.7-0.4,2.7-2.2,3.3
		c-6.1,2-12.1,4.2-18.1,6.4c-1.7,0.6-3.2,0.2-4.7-0.7c0,0,0,0,0,0C552,327.7,552,327.3,552,327z"/>
	<path fill="#292728" d="M386,394.9c-6.1,2.3-12.1,4.6-18.2,7c-1.6,0.6-3.5,0.7-4.9,2.1c-1.7-1.7-0.9-3.1,0.9-3.8
		c6.4-2.5,12.9-4.8,19.3-7.1C384.6,392.7,385.8,393.2,386,394.9z"/>
	<path fill="#292728" d="M476,246c-1.9,8.6-0.7,17.3-1,25.9c-2.5,0.3-3.1-1.1-3-3.3c0.4-6.8,0.7-13.5,1-20.3
		C473.1,246.3,474.4,246,476,246z"/>
	<path fill="#232121" d="M362,408c0-0.4,0.1-0.7,0.1-1.1c0.3-0.3,0.6-0.7,1-1c0.6,0.7,1.3,1.4,1.9,2.1c1.9,5.7,4.9,10.8,8.2,15.8
		c1.2,1.9,3.2,3.5,2.8,6.1c-1.6-0.7-2.3-2.2-3.3-3.5C368.2,420.8,366.1,413.9,362,408z"/>
	<path fill="#232121" d="M459,448c0,0.7,0,1.3,0,2c0,0,0,0.1,0,0.1c-2.4-0.4-5-0.5-7.3-1.2c-6.1-1.9-12.7-2.2-17.7-6.9
		c1.7-0.2,3.1,0.7,4.7,1.3C445.3,445.6,451.8,448.1,459,448C459,448,459,448,459,448z"/>
	<path fill="#232121" d="M478,272.1c0.3,0,0.7-0.1,1-0.1c5.1,1,10.3,1.9,15.3,3.1c2.3,0.6,4.9,0.8,6.6,2.9c-1.7,0.2-3.2-0.4-4.8-0.7
		c-5.7-1.1-11.2-3.7-17.2-3.3c-0.3,0-0.7-0.1-1-0.1c0-0.3,0-0.7,0-1C478,272.7,478,272.4,478,272.1z"/>
	<path fill="#232121" d="M604,310c-0.7-0.7-1.3-1.3-2-2c0-0.8-0.2-1.6-1-2c-0.3-2.7-2.6-5-2.1-7.9c0,0,0.2-0.2,0.2-0.2
		c1,1.4,1.9,2.8,2.9,4.1c-0.2,2.3,1.2,4,2.1,5.9c0.3,0.7,0.7,1.4,1,2C604.7,310,604.3,310,604,310z"/>
	<path fill="#969798" d="M576.8,232.1c-2.1,0-3.7-0.6-3.8-3.1C574.8,229.4,576,230.5,576.8,232.1z"/>
	<path fill="#969798" d="M571.9,228.1c-1.5,0-2.9-0.1-2.8-2.1C570.3,226.2,571.4,226.8,571.9,228.1z"/>
	<path fill="#969798" d="M567.9,225.1c-1.4,0-2.8-0.1-2.9-2C566.3,223.2,567.3,223.8,567.9,225.1z"/>
	<path fill="#232121" d="M576.9,317c-1.1-0.8-0.9-1.9-0.9-3c0.3,0,0.6,0,1,0c0.3,1,0.7,2,1,3c0,0,0,0,0,0
		C577.6,317,577.3,317,576.9,317z"/>
	<path fill="#292728" d="M464,298.8c-0.3,0-0.7,0-1,0.1C463.3,298.3,463.6,298.3,464,298.8z"/>
	<path fill="#48484B" d="M479,274.1c6-0.4,11.4,2.2,17.2,3.3c1.6,0.3,3.1,0.9,4.8,0.7c0,0,0,0,0,0c1,2.4,3,2.1,5,2c0,0,0,0,0,0
		c0.3,0.3,0.7,0.7,1,1c0,0,0,0,0,0c0.4,0.9,1.2,1,2,1c0,0,0,0,0,0c0.4,0.9,1.2,1,2,1c0,0,0,0,0,0c0.7,1.2,1.9,1.1,3,1
		c0.1,0.2,0.3,0.3,0.4,0.5c0-0.1,0-0.2-0.1-0.3c-0.1-0.1-0.2-0.1-0.3-0.2c0-0.3-0.1-0.6-0.1-0.9c3.2-6,6.3-11.9,9.5-17.9
		c0.8-1.6,1.8-3.2,1.7-5.1c0.7,0.2,1.6,0.7,2.2,0.5c0.7-0.3-0.1-1-0.2-1.5c0.5-0.4,1-0.7,1.5-1.1c0.5,0.8,1,1.6,1.5,2.4
		c3,3.3,8.2,4,10.1,8.6c-3.4-0.7-5.6-3.5-8.4-5.1c-2.4-1.4-3.9-1.1-5.1,1.5c-1.7,3.4-3.6,6.7-5.5,10c-4.7,8.1-4.7,8.1,2,14.1
		c0.1,0.1,0.1,0.3,0.1,0.5c-2.5,0.9-3.5-1.7-5.4-2.3c-1.4-0.5-2.8-1.6-3.8,0.3c-3.6,7-9.4,13.1-8,21.9c-1.3-1-2.6-2-4-2.9
		c0-1,0.1-2,0.1-3c1.9-1.7,0.8-3-0.8-3.9c-1.7-0.9-3.6-1.7-5.4-2.3C479.7,292.3,478.8,291.1,479,274.1z"/>
	<path fill="#322E1D" d="M469.7,409.1c-26.6,0-47.9-21.3-47.9-47.9c0-26.6,21.4-48.1,47.9-48c26.4,0,48.1,21.7,48,48
		C517.7,387.5,496.1,409.1,469.7,409.1z M515.2,361.4c0.1-25.4-20.2-45.9-45.5-45.9c-25.1,0-45.5,20.3-45.7,45.3
		c-0.1,25.2,20.5,46,45.6,46C494.6,406.8,515,386.5,515.2,361.4z"/>
	<path fill="#CBCCCD" d="M505.8,309.9c-1.4-8.8,4.4-14.9,8-21.9c1-1.9,2.4-0.8,3.8-0.3c1.9,0.7,2.9,3.2,5.4,2.3c0,0,0-0.1,0-0.1
		c-0.4,2.2,1.4,2.3,2.7,2.9c1.8,0,3.8,0.8,5.2-0.6c5.5-5.3,11.5-10.2,15-17.2c0.4,0,0.7,0,1.1-0.1l-0.1,0c-0.2,0.9,0.6,1.2,1.1,1.7
		c2.3,2.9-2.5,3.9-1.8,6.3c-1.1,1.3-2.2,2.6-3.3,3.9c-1.8,0.2-2.9,1.2-3,3.1c-0.7,0.7-1.3,1.4-2,2c-2.3,0.4-3.7,1.8-3.8,4.2
		c-1.2-0.1-2.1,0.4-2.7,1.3c-0.3,0.3-0.6,0.6-0.9,0.9c-5.3,6.3-9.9,13.4-18.1,16.5c-1.6-1.3-3.2-2.7-4.8-4c-0.5-0.3-0.9-0.5-1.4-0.8
		L505.8,309.9z"/>
	<path fill="#48484B" d="M512.4,315c8.2-3.1,12.8-10.2,18.1-16.5c0.3-0.3,0.6-0.6,0.9-0.9c0.2,0.2,0.5,0.4,0.7,0.5
		c0.3,0.3,0.6,0.6,0.9,0.9l0,0c0.3,0.3,0.7,0.7,1,1l0,0c0.3,0.3,0.7,0.7,1,1l0,0c-0.1,1,0.3,1.7,1,2.3c0.1,0.3,0.4,0.5,0.6,0.7
		c0.5,0.3,0.9,0.7,1.4,1l0,0c0,1.3,0.6,2,2,2l0,0c-0.1,0.9,0.1,1.6,1,2l0,0c0,1.5,0.7,2.5,2,3l0,0c0,1.5,0.7,2.5,2,3l0,0
		c0.3,2.1,1,4,3,5l0,0c0.3,0.3,0.7,0.7,1,1c0,0,0,0,0,0c0,1.3,0,2.7,0,4c-1.5,0.2-3.1,0.1-4.4,0.7c-8.2,3.6-14.7,1.8-19.9-5.4
		c-0.9-1.2-1.7-2.5-2.7-3.6c-1.8-2.1-3.6-2.4-5.1,0.3c-0.8,0.4-0.9,1.2-1,2C514.8,317.6,513.6,316.3,512.4,315z"/>
	<path fill="#969798" d="M439.4,418.9c-0.2,0.2-0.4,0.4-0.6,0.7c-3.8,5.8-7.4,11.6-9.8,18.1c-1.5,0.4-2.8,0.1-3.9-1.1
		c2.5-4.8,5.1-9.6,7.5-14.6c1.1-2.3,1.3-4.9-0.9-6.9c-2.3-2-5-1.6-7.4-0.2c-1.3,0.7-2.4,1.8-3.4,2.8c-3.3,3.2-5.5,8.1-8.7,10.5
		c-6.2,4.5-9.8,11.2-15.6,15.8c-1.2,1-2.7,2.1-2.5,4.1c-0.3,0-0.7,0-1,0c-0.3-0.4-0.6-0.8-0.8-1.2c-0.3-0.5-0.7-0.9-1-1.4
		c0.1-0.1,0.2-0.3,0-0.5c4.7-7.1,11.3-12.5,16.8-18.9c1.4-0.1,1.3-1.2,1.4-2.1c5-4.2,9.1-9.2,13-14.3c1.6-0.6,3.1-1.2,4.7-1.9
		c4.3,2.8,8.6,5.5,12.9,8.3C439.7,417.1,439.6,418,439.4,418.9z"/>
	<path fill="#292728" d="M439.4,418.9c0.2-0.9,0.3-1.8,0.5-2.7c1.4,0.7,2.7,1.4,4.1,2.1C442.9,421.6,440.8,418.1,439.4,418.9z"/>
	<path fill="#48484B" d="M506.2,310.2c0.5,0.3,0.9,0.5,1.4,0.8C507.1,310.7,506.7,310.4,506.2,310.2z"/>
	<path fill="#48484B" d="M537.7,241c0,2-0.7,3.4-2.6,4.2C535.2,243.3,535.5,241.6,537.7,241z"/>
	<path fill="#48484B" d="M531.7,252c0,2-0.7,3.4-2.6,4.2C529.2,254.3,529.6,252.6,531.7,252z"/>
	<path fill="#232121" d="M541,235c1.9,2.9-1,1.8-1.9,2.3c-0.4-0.8-0.7-1.5-1.1-2.3C539,235,540,235,541,235z"/>
	<path fill="#969798" d="M401,485.9c-0.7,0-1.4,0.1-2.1,0.1c0,0,0.1,0,0.1,0c0.1-0.8-0.5-0.9-1-1.1c0.3-0.6,0.7-1.3,1-1.9
		c0-0.3,0.1-0.6,0.2-0.9c2.8-1.1,3.2-3.7,3.8-6.1c0-0.3,0.1-0.6,0.2-0.9c2.2-0.5,2.6-2.3,2.8-4.1c0.7-1.6,1.5-3.2,2.2-4.9
		c3.2-4,6.5-8,7.8-13.1c0.4-1,0.8-1.9,1.2-2.9c2.2-0.5,2.6-2.3,2.8-4.1c0.7-1.6,1.5-3.2,2.2-4.9c1.8-0.2,1.9-1.5,1.8-2.9
		c1.6,0.2,2.1,1.5,2.8,2.7c-3.9,7-7.8,14-11.8,21c-1.3,0.1-2.2,0.5-1.8,2.1C409.1,471.3,405.1,478.6,401,485.9z"/>
	<path fill="#232121" d="M413.2,463.9c-0.4-1.6,0.4-2,1.8-2.1c12.2,7.7,25.7,11.8,40,13.2c0,0.6,0,1.3,0,1.9
		c-12.8-1.3-24.8-5.1-36.4-10.6C416.8,465.5,415,464.7,413.2,463.9z"/>
	<path fill="#232121" d="M506,280c-2,0.1-4,0.4-5-2C503,277.9,504.7,278.4,506,280z"/>
	<path fill="#232121" d="M514,284c-1.1,0.1-2.3,0.3-3-1c1,0,1.9,0.1,2.9,0.1C513.9,283.4,514,283.7,514,284L514,284z"/>
	<path fill="#232121" d="M511,283c-0.9,0-1.6-0.1-2-1C509.9,282,510.6,282.1,511,283z"/>
	<path fill="#232121" d="M509,282c-0.9,0-1.6-0.1-2-1C507.9,281,508.6,281.1,509,282z"/>
	<path fill="#232121" d="M507,281c-0.3-0.3-0.7-0.7-1-1C506.3,280.3,506.7,280.7,507,281z"/>
	<path fill="#424244" d="M536.6,304c-0.3-0.2-0.5-0.4-0.6-0.7c0.1-1,0-1.8-1-2.3c0,0,0,0,0,0c-0.3-0.3-0.7-0.7-1-1c0,0,0,0,0,0
		c-0.3-0.3-0.7-0.7-1-1c0,0,0,0,0,0c-0.3-0.3-0.6-0.6-0.9-0.9c-0.2-0.2-0.4-0.4-0.7-0.5c0.7-0.9,1.6-1.4,2.7-1.3
		c2.4-0.4,3.4-2,3.8-4.2c0.7-0.7,1.3-1.4,2-2c1.9-0.1,2.9-1.2,3-3.1c1.1-1.3,2.2-2.6,3.3-3.9c2.1-0.1,2.9-2.4,4.8-3
		c0.6,0.1,1.2,0.1,1.8,0.2c0.2,0.4,0.4,0.8,0.6,1.3c0.1-0.1,0.4-0.3,0.4-0.3c-0.2-0.4-0.5-0.8-0.7-1.2c-0.4-0.8-0.8-1.7-1.2-2.5
		c0.4-1.8,2.2-2.3,3.3-3.5c2.7-0.7,4.3-2.3,4.8-5c2.1-2.3,4.1-4.6,6.2-7c1.6,0,2.5-1.5,3.9-2c0.6,0,1.2,0.1,1.9,0.1
		c0.3,0.3,0.7,0.7,1,1c0.1,0.4,0.3,0.8,0.4,1.2c0.2-0.1,0.3-0.2,0.5-0.4c-0.3-0.3-0.5-0.6-0.8-1c-0.3-0.3-0.7-0.7-1-1
		c-0.4-0.8-0.8-1.7-1.1-2.5c3.2-3.5,5.9-7.7,9.9-10.5c6.1,2.5,9.7,7.9,13.9,12.4c6.6,7.1,12.4,15,17.6,23.3
		c6.6,10.6,4.7,15.9-7.3,19.1c-0.9,0.3-2,0.1-3,0.2c-1-1.4-1.9-2.7-2.9-4.1c-0.3-0.7-0.7-1.3-1-2c-0.3-0.7-0.7-1.3-1-2
		c-0.9-2.3-1.1-5-4-6c-0.2-2.1-0.5-4.3-3-5c-0.1-1.4-0.2-2.8-2-3c-0.3-0.7-0.7-1.3-1-2c-1.4-2.8-2.4-6.1-6-7c0-2.1-0.6-3.7-3-4
		c-0.2-0.4-0.4-0.8-0.6-1.3c-0.1,0.1-0.4,0.3-0.4,0.3c0.2,0.4,0.5,0.8,0.7,1.2c0.2,1.9,1.5,3,3,4c1.6,2.7,3,5.6,5.9,7.1
		c0.3,0.7,0.7,1.3,1,2c0.1,1.4,0.8,2.3,2,3c0.5,2,1.2,3.8,3,5c0.9,2.3,1.1,5,4,6c0.3,0.7,0.7,1.3,1,2c0,0.8,0.3,1.5,1,2
		c-0.5,2.9,1.8,5.2,2.1,7.9c-8,2.7-16,5.3-24,8c-0.3,0-0.6,0-1,0c0,0,0,0,0,0c-0.6-3.6-1.6-7-4.9-9.1c-0.3-0.7-0.7-1.3-1-2
		c0-1.4-0.2-2.8-2-3c0.1-1.7-0.4-3.1-2-4c-0.1-1.2-0.8-1.9-2-2c0-1.4-0.2-2.8-2-3c-0.1-1.4-0.8-2.3-2-3c-0.1-1.2-0.8-1.9-2-2
		c-0.2-0.4-0.4-0.8-0.6-1.3c-0.1,0.1-0.4,0.3-0.4,0.3c0.2,0.4,0.5,0.8,0.7,1.2c0.1,1.2,0.7,1.9,2,2c0.1,1.4,0.8,2.3,2,3
		c0.1,1.4,0.8,2.4,2,3c0.1,1.2,0.8,1.9,2,2c0,1.7,0.4,3.1,2,4c0.1,1.4,0.8,2.4,2,3c0.3,0.7,0.7,1.3,1,2c1.3,3,2.6,5.9,4,8.9
		c-4.8,3.6-10.7,4.6-16.1,6.9c-2.5,1.1-5.1,2-7.7,3c-0.7-1-1.4-2-2.1-3c0,0,0,0,0,0c-0.3-0.3-0.7-0.7-1-1c0,0,0,0,0,0
		c-0.1-2.2-0.2-4.4-3-5l0,0c0.1-1.5,0.1-3-2-3l0,0c0.1-1.5,0.1-2.9-2-3c0,0,0,0,0,0c0.1-0.9-0.1-1.6-1-2l0,0c0-1.3-0.6-2-2-2
		c0,0,0,0,0,0C537.5,304.7,537.1,304.3,536.6,304z"/>
	<path fill="#404043" d="M371,466.9c-4.9,2.3-6.9,7.5-10.8,10.7c-1.4,1.1-2.6,2.5-3.9,3.8c-6-6.8-12.1-13.5-17.8-20.5
		c-6.7-8.2-12.8-16.9-17.6-26.3c-3.5-6.9-2.2-10.2,4.8-13.4c3.3-1.5,6.4-3.5,10.3-3.2c5.3,8.4,8.7,17.9,15,25.8c2.1,2.6,3,6.5,7,7.2
		c0,0,0,0,0,0c-0.3,3.8,2.9,5.1,5,7.3c3,1,5.1,3,7,5.5C369.8,465,370.5,465.9,371,466.9z"/>
	<path fill="#E5E5E6" d="M370,494c-0.3-0.3-0.7-0.6-1-1c0.1-1.2-0.5-2.3-1.4-2.9c-3.4-2.4-4.1-5.5-2.7-9.3c0-0.3,0-0.6,0.1-0.8
		c3.8-1.4,6.6-3.7,7-8c0.4-0.9,0.8-1.7,1.2-2.6c0,0,0-0.3,0-0.3l-0.3-0.2c0.7,0.1,1.3,1.2,2,0.2c0,0-0.1-0.1-0.1-0.1
		c-0.6,1.9,0.9,1.6,1.9,1.8c0.3,1.7,0.8,3.2,3,3c0.3,0,0.9-0.7,0.8-0.9c-0.3-1.9-2-1.8-3.4-2c-0.2,0-0.3,0-0.5,0c0-0.5,0-1,0.1-1.4
		c5-7.1,11.6-12.8,17.2-19.4c0.3-0.2,0.6-0.3,0.9-0.3c1,1.8,1.3,4.2,4.1,4.3c0.5,0.7,1,1.4,2,1c0,0,0,0,0,0c1.5,3,5.1,3.5,7.1,5.9
		c-3.1,5.6-6.4,11.2-9.4,17c-1.5,2.8-3.2,4.7-6.6,4.1c-0.1-1.9-1.6-1.9-3-2c-0.2-1.9-1.6-1.9-3-2c-0.3-1.6-0.9-2.9-2.9-2.7
		c-0.3,0-0.9,0.7-0.9,0.9c0.4,2,2.1,1.8,3.5,2c0.2,1.9,1.6,1.9,3,2c0.2,1.9,1.6,1.9,3,2c0.2,1.9,1.2,2.8,3,2.9c0,0.7,0,1.3,0.1,2
		c-3,0.5-3.3,3.5-4.5,5.4c-5.2,7.9-5.1,8-13.7,5.7c-0.3,0-0.6,0-0.8-0.1c0-1.4-0.7-2.1-2.2-1.9c-0.3,0-0.6,0-0.8-0.1
		C372.9,494,371.5,494,370,494z"/>
	<path fill="#DBDBDB" d="M392.1,481.9c3.4,0.6,5.1-1.3,6.6-4.1c3-5.7,6.3-11.3,9.4-17c0.4,0.2,0.9,0.4,1.3,0.5
		c-0.4,1.5-0.8,3.1-1.2,4.6c-0.7,1.6-1.5,3.2-2.2,4.9c-2.2,0.5-2.7,2.2-2.8,4.1c-0.1,0.3-0.1,0.6-0.2,0.9c-2.9,1-3.3,3.6-3.8,6.1
		c-0.1,0.3-0.1,0.6-0.2,0.9c-1.7-0.1-3.2,0.3-4,2c-1.8-0.1-2.9-1.1-3-2.9L392.1,481.9z"/>
	<path fill="#DBDBDB" d="M376.8,498.1c8.6,2.3,8.5,2.2,13.7-5.7c1.2-1.9,1.5-4.9,4.5-5.4c-1,4.5-3.7,8.1-6.2,11.6
		C385.2,503.5,380.9,503.1,376.8,498.1z"/>
	<path fill="#DBDBDB" d="M364.9,480.8c-1.4,3.7-0.8,6.9,2.7,9.3c1,0.7,1.5,1.7,1.4,2.9c-3.4-1-5.7-3.4-6.8-6.5
		C361.4,484.4,361.4,481.5,364.9,480.8z"/>
	<path fill="#DBDBDB" d="M372,472c-0.5,4.3-3.3,6.6-7,8C366.1,476.3,369.2,474.3,372,472z"/>
	<path fill="#DBDBDB" d="M370,494c1.5,0,2.9,0,3,2C371.5,496,370.5,495.3,370,494z"/>
	<path fill="#DBDBDB" d="M373.8,496.1c1.4-0.1,2.1,0.5,2.2,1.9C374.7,498,374,497.3,373.8,496.1z"/>
	<path fill="#232121" d="M398,484.9c0.5,0.2,1.1,0.4,1,1.1c-1,0.9-2.1,0.2-2.4-0.4C396.3,485,397.5,485.1,398,484.9z"/>
	<path fill="#424244" d="M422.3,409.7c-3.9,5.2-8,10.2-13,14.3c-0.8,0-1.5,0-2.3-0.1l0,0c-0.3-0.3-0.7-0.7-1-1l0,0
		c-0.3-0.3-0.7-0.7-1-1l0,0c0.1-1-0.3-1.7-1-2.3c-0.6-0.2-1.1-0.5-1.7-0.7c-0.4-1.9-0.6-4-3.3-4l0,0c0.3-2.4-1-3.9-3-5l0,0
		c-0.3-2.1-1-3.9-3-5l0,0c-0.7-2-1.4-4-2-6c5.4-6.2,15.9-6.8,21.5-1C415.9,401.7,419,405.8,422.3,409.7z"/>
	<path fill="#232121" d="M391,399c0.7,2,1.4,4,2,6c-3.4-0.6-2.7-4.5-5-6c0-0.3,0-0.7,0-1c0.3-0.3,0.6-0.6,1-1
		C389.7,397.7,390.3,398.3,391,399z"/>
	<path fill="#181616" d="M389,397c-0.3,0.3-0.6,0.6-1,1c0-0.7-0.1-1.3-0.1-2C388.3,396.3,388.7,396.6,389,397z"/>
	<path fill="#363537" d="M479,274.1c-0.2,17,0.6,18.2,16.7,23.7c1.9,0.6,3.7,1.4,5.4,2.3c1.6,0.9,2.7,2.1,0.8,3.9
		c-5.5-2.3-11-4.7-16.6-6.7c-8.2-3-9.3-4.4-9.4-12.9c0-2.3,0-4.7,0-7c0-1.5-0.1-3.1,2-3.4C478.4,274,478.7,274,479,274.1z"/>
	<path fill="#E5E5E6" d="M540,269c-1.9-4.6-7.1-5.3-10.1-8.6c1.8-0.4,2.6-1.8,3.4-3.3c2.3-4.4,4.7-8.7,7-13c1.1-2.1,1.7-4.6,5.2-4.3
		c1.5,0.1,1.1-1.1,0-1.8c1.1-4.5,3.5-8.2,6-11.9c2.2-3.2,5.1-4.2,8.6-2.1c5.7,3.4,11.1,7.3,15.6,12.2c2,2.1,2,4.8,0.7,6.9
		c-2.6,4.2-5.7,8.1-10.6,10c-1.2-0.2-1.6-2.5-3.7-1.2c1,1.2,1.9,2.2,2.7,3.3c0.1,1.9-1.7,2.7-2.5,4c-3.7,5.9-10.1,9.4-13.4,15.6
		c-0.7-0.1-1.4-1-2,0.1c0,0,0.1,0,0.1,0c0.5-1.3,0.1-1.6-1.1-1l0.1,0.1c0.6-1.3,0.1-1.5-1.1-1.1l0.1,0c0.6-1.9-0.8-1.6-1.9-1.6
		C543.1,269.3,541.8,268.9,540,269z"/>
	<path fill="#363537" d="M570.1,259.9c-1.4,0.5-2.2,2-3.9,2c-0.4-1.9,3-3,1-5.2c0.3-0.3,0.7-0.7,1-1c0.6,0.1,1.2,0.2,1.7,0.3
		c0,0.5,0.1,0.9,0.1,1.4C570.1,258.2,570.1,259.1,570.1,259.9z"/>
	<path fill="#363537" d="M564.9,255.2c-0.9-1-1.7-2.1-2.7-3.3c2.1-1.4,2.5,1,3.7,1.2c0.8,0.9,1.6,1.7,2.4,2.6c-0.3,0.3-0.7,0.7-1,1
		C566.5,256.2,566.1,255.1,564.9,255.2z"/>
	<path fill="#363537" d="M517,316.9c1.6-2.7,3.4-2.3,5.1-0.3c1,1.1,1.8,2.4,2.7,3.6c5.1,7.2,11.7,9.1,19.9,5.4
		c1.3-0.6,2.9-0.5,4.4-0.7c0.6,0.3,1.3,0.7,1.9,1c0,0.7,0.1,1.3,0.1,2c-4.9-0.3-9.3,2.2-13.8,3.4c-5.7,1.4-8.8-1-11.8-4.8
		C522.7,323.2,520.7,319.3,517,316.9z"/>
	<path fill="#181616" d="M551,328c0-0.7-0.1-1.3-0.1-2c0.4,0,0.7,0,1.1,0c0,0.3,0,0.7,0,1c0,0.3,0,0.7,0,1
		C551.7,328,551.3,328,551,328z"/>
	<path fill="#424244" d="M428.9,437.6c2.4-6.5,6-12.3,9.8-18.1c0.3,2.5,2.3,3.4,4.2,3.8c14,2.7,17.6,11.9,16.1,24.6
		c-7.2,0.1-13.7-2.4-20.3-4.7c-1.5-0.5-2.9-1.5-4.7-1.3c0,0,0,0,0,0C432.8,440,429.5,440.3,428.9,437.6z"/>
	<path fill="#424244" d="M455,475c-14.3-1.4-27.8-5.4-40-13.2c3.9-7,7.8-14,11.8-21c2.5-0.1,4.7,1.7,7.3,1.2c0,0,0,0,0,0
		c5,4.7,11.6,5,17.7,6.9c2.3,0.7,4.9,0.8,7.3,1.2c0,6.9-0.1,13.8,0.1,20.7C459.1,473.8,458.3,475.5,455,475z"/>
	<path fill="#232121" d="M574.9,314c-1.3-3-2.6-5.9-4-8.9c0,0,0.2-0.2,0.2-0.2c3.3,2.1,4.3,5.5,4.9,9.1
		C575.6,314,575.3,314,574.9,314z"/>
	<path fill="#232121" d="M552,326c-0.4,0-0.7,0-1.1,0c-0.6-0.3-1.3-0.7-1.9-1c0-1.3,0-2.7,0-4c0.7,1,1.4,2,2.1,3
		C551.4,324.6,551.7,325.3,552,326z"/>
	<path fill="#404043" d="M388,399c2.3,1.5,1.6,5.4,5,6c0,0,0,0,0,0c0.1,2.2,0.2,4.4,3,5l0,0c-0.3,2.4,1,4,3,5c0,0,0,0,0,0
		c0.2,2.1,1.4,3.3,3.3,4c0.6,0.2,1.1,0.5,1.7,0.7c-0.1,0.9,0,1.8,1,2.3c0,0,0,0,0,0c0.3,0.3,0.7,0.7,1,1c0,0,0,0,0,0
		c0.3,0.3,0.7,0.7,1,1c0,0,0,0,0,0c0.3,0.7,0.6,1.4,0.9,2.2c-5.5,6.4-12.2,11.7-16.8,18.9c-2.7-1.9-5.4-3.8-8.1-5.8
		c0.2-2.9-0.9-4.8-4-5.3l0,0c0.1-0.9-0.1-1.6-1-2l0,0c0-1.3-0.6-2-2-2l0,0c0.4-2.7-1.6-4.3-2.8-6.1c-3.3-5-6.3-10.1-8.2-15.8
		c3.9-4.6,10.2-4.2,15.1-6.8C382.4,400,385.1,399,388,399z"/>
	<path fill="#424244" d="M383,439.3c2.7,1.9,5.4,3.8,8.1,5.8c0.1,0.2,0.1,0.3,0,0.5c-0.1,0.7-0.2,1.3-0.3,2
		c-6.6,5.5-12.3,11.8-17.7,18.5c-1-0.8-2-1.5-3.1-2.3c-1.8-2.5-4-4.5-7-5.5c0.3-3.8-2.6-5.4-5-7.3c0,0,0,0,0,0
		c-4-6.2-8.2-12.3-12-18.6c-3.2-5.2-6-10.6-8-16.4c8-2.7,16-5.3,23.9-8c4.1,5.8,6.2,12.8,10.7,18.5c1,1.3,1.7,2.8,3.3,3.5
		c0,0,0,0,0,0c0,1.3,0.6,2,2,2c0,0,0,0,0,0c-0.1,0.9,0.1,1.6,1,2c0,0,0,0,0,0C379.2,436.6,381.4,437.7,383,439.3z"/>
	<path fill="#232121" d="M570.1,259.9c0-0.9,0-1.7,0-2.6c0.3,0,0.6,0,0.9,0.1c0.4,0.8,0.8,1.7,1.1,2.5c0,0-0.1,0.1-0.1,0.1
		C571.3,260,570.7,260,570.1,259.9z"/>
	<path fill="#363537" d="M577,314c8-2.7,16-5.3,24-8c0.8,0.4,1,1.2,1,2c-1.7,3-5.1,2.7-7.7,3.8c-5.3,2.1-10.6,4.2-16.3,5.2
		C577.7,316,577.3,315,577,314z"/>
	<path fill="#232121" d="M370,463.7c1,0.8,2,1.5,3.1,2.3c0.6,1,2.2,1.5,2,3.1c-0.8,1-1.4-0.1-2-0.2c-0.7-0.7-1.3-1.3-2-2
		C370.5,465.9,369.8,465,370,463.7z"/>
	<path fill="#DBDBDB" d="M540,269c1.7-0.2,3,0.3,3.1,2.3c0.4,0.9,0.3,2.2,1.9,1.6c0,0-0.1,0-0.1,0c-0.2,0.9,0.3,1.2,1.1,1.1
		c0,0-0.1-0.1-0.1-0.1c0,0.4,0,0.7,0,1.1c-3.5,7.1-9.5,11.9-15,17.2c-1.4,1.4-3.5,0.6-5.2,0.6c0.1-1.9-1-2.7-2.7-2.9
		c0,0,0,0.1,0,0.1c0-0.2,0-0.4-0.1-0.5c-6.7-6-6.6-6-2-14.1c1.9-3.3,3.8-6.6,5.5-10c1.3-2.6,2.7-2.8,5.1-1.5
		C534.5,265.6,536.6,268.3,540,269z"/>
	<path fill="#232121" d="M514,284c0.1,0.1,0.3,0.1,0.3,0.2c0.1,0.1,0,0.2,0.1,0.3C514.3,284.3,514.1,284.1,514,284
		C514,284,514,284,514,284z"/>
	<path fill="#E5CB26" d="M515.2,361.4c-0.1,25.1-20.6,45.4-45.5,45.4c-25.1,0-45.7-20.8-45.6-46c0.1-25,20.6-45.3,45.7-45.3
		C495,315.5,515.3,336,515.2,361.4z M477.1,361.2c0-4.3-3.2-7.7-7.5-7.6c-4,0-7.4,3.3-7.5,7.2c-0.2,4.1,3.2,7.8,7.4,7.9
		C473.6,368.9,477.1,365.5,477.1,361.2z"/>
	<path fill="#363537" d="M551.1,279.9c-1.8,0.6-2.6,2.9-4.8,3c-0.7-2.5,4.1-3.4,1.8-6.3c0.4-0.3,0.7-0.6,1.1-0.9
		c0.8,0.3,1.6,0.6,1.9,1.6C551.1,278.2,551.1,279.1,551.1,279.9z"/>
	<path fill="#363537" d="M538,292c-0.5,2.1-1.5,3.8-3.8,4.2C534.3,293.8,535.7,292.5,538,292z"/>
	<path fill="#48484B" d="M523,290c1.7,0.2,2.8,1.1,2.7,2.9C524.4,292.3,522.6,292.2,523,290z"/>
	<path fill="#363537" d="M543,286.9c-0.1,1.9-1.1,3-3,3.1C540.1,288.1,541.2,287.1,543,286.9z"/>
	<path fill="#363537" d="M547,274.9c0.6-1.1,1.3-0.2,2-0.1c0,0.3,0.1,0.6,0.2,0.9c-0.4,0.3-0.7,0.6-1.1,0.9
		C547.6,276.2,546.8,275.8,547,274.9z"/>
	<path fill="#363537" d="M546,275c0-0.4,0-0.7,0-1.1c1.2-0.5,1.6-0.2,1.1,1C546.7,275,546.3,275,546,275z"/>
	<path fill="#232121" d="M545,315c2.9,0.6,2.9,2.8,3,5C546,319,545.3,317.1,545,315z"/>
	<path fill="#232121" d="M541,309c2.1,0.1,2.1,1.5,2,3C541.6,311.5,541,310.5,541,309z"/>
	<path fill="#232121" d="M543,312c2.1,0.1,2.1,1.5,2,3C543.6,314.5,543,313.5,543,312z"/>
	<path fill="#232121" d="M538,305c1.4,0,2,0.7,2,2C538.6,307,538,306.3,538,305z"/>
	<path fill="#232121" d="M535,301c1,0.5,1.1,1.4,1,2.3C535.3,302.7,534.8,302,535,301z"/>
	<path fill="#232121" d="M540,307c0.9,0.4,1.1,1.1,1,2C540.1,308.6,539.9,307.9,540,307z"/>
	<path fill="#232121" d="M532.1,298.1c0.3,0.3,0.6,0.6,0.9,0.9C532.7,298.7,532.4,298.4,532.1,298.1z"/>
	<path fill="#232121" d="M533,299c0.3,0.3,0.7,0.7,1,1C533.7,299.7,533.3,299.3,533,299z"/>
	<path fill="#232121" d="M534,300c0.3,0.3,0.7,0.7,1,1C534.7,300.7,534.3,300.3,534,300z"/>
	<path fill="#232121" d="M536.6,304c0.5,0.3,0.9,0.7,1.4,1C537.5,304.7,537.1,304.3,536.6,304z"/>
	<path fill="#232121" d="M548,320c0.3,0.3,0.7,0.7,1,1C548.7,320.7,548.3,320.3,548,320z"/>
	<path fill="#DBDBDB" d="M399,454c-2.8-0.1-3.1-2.5-4.1-4.3c-0.3-0.6-0.6-1.1-0.9-1.7c-0.2-2,1.2-3.1,2.5-4.1
		c5.8-4.6,9.4-11.3,15.6-15.8c3.2-2.3,5.4-7.2,8.7-10.5c1.1-1,2.2-2.1,3.4-2.8c2.4-1.4,5.1-1.8,7.4,0.2c2.2,1.9,2,4.6,0.9,6.9
		c-2.3,4.9-5,9.7-7.5,14.6c-1.2-0.4-2.1-0.1-1.9,1.4c-0.3,1.1-0.6,2.1-0.9,3.2c-0.7,1.6-1.5,3.2-2.2,4.9c-2.3,0.5-2.7,2.2-2.8,4.1
		c-0.4,1-0.8,1.9-1.2,2.9c-3.3,0.9-3,5.4-6.3,6.3c-3.2-0.8-4.9-4.6-8.7-4.2c0,0,0,0,0,0c0.8-0.5,0.4-1-0.1-1.4
		C400.1,453,399.4,453.1,399,454z"/>
	<path fill="#232121" d="M423.1,437.9c-0.1-1.5,0.7-1.7,1.9-1.4c1.1,1.2,2.4,1.5,3.9,1.1c0.6,2.7,3.9,2.4,5.1,4.4
		c-2.6,0.5-4.8-1.2-7.3-1.2c-0.6-1.2-1.2-2.4-2.8-2.7C423.7,438,423.4,437.9,423.1,437.9z"/>
	<path fill="#232121" d="M394,448c0.3,0.6,0.6,1.1,0.9,1.7c-0.3,0-0.6,0.1-0.9,0.3c-0.6-0.5-1.1-1-1.7-1.4c0.2-0.2,0.4-0.4,0.7-0.6
		C393.3,448,393.6,448,394,448z"/>
	<path fill="#232121" d="M407.9,426.2c-0.3-0.7-0.6-1.4-0.9-2.2c0.8,0,1.5,0,2.3,0.1C409.2,425,409.3,426,407.9,426.2z"/>
	<path fill="#232121" d="M392.1,446.9c0.3,0.4,0.6,0.8,0.8,1.2c-0.2,0.2-0.4,0.4-0.7,0.6c-0.3-0.3-0.7-0.5-1-0.8
		C391.6,447.5,391.8,447.2,392.1,446.9z"/>
	<path fill="#232121" d="M390.8,447.5c0.1-0.7,0.2-1.3,0.3-2c0.3,0.5,0.7,0.9,1,1.4c-0.3,0.3-0.5,0.6-0.8,0.9
		C391.1,447.8,390.9,447.7,390.8,447.5z"/>
	<path fill="#AFB0B2" d="M409.7,459.3c3.3-0.9,3-5.4,6.3-6.3c-1.3,5.1-4.6,9.1-7.8,13.1c0.4-1.5,0.8-3.1,1.2-4.6
		C409.5,460.7,409.6,460,409.7,459.3z"/>
	<path fill="#AFB0B2" d="M399.2,482.1c0.5-2.5,0.9-5.1,3.8-6.1C402.3,478.4,402,481,399.2,482.1z"/>
	<path fill="#AFB0B2" d="M403.1,475.1c0.1-1.9,0.6-3.6,2.8-4.1C405.8,472.8,405.4,474.6,403.1,475.1z"/>
	<path fill="#AFB0B2" d="M417.2,450.1c0.1-2,0.5-3.7,2.8-4.1C419.8,447.8,419.4,449.6,417.2,450.1z"/>
	<path fill="#AFB0B2" d="M423.1,437.9c0.3,0,0.6,0.1,0.9,0.2c0.1,1.4,0,2.7-1.8,2.9C422.5,440,422.8,439,423.1,437.9z"/>
	<path fill="#AFB0B2" d="M549.2,275.8c-0.1-0.3-0.2-0.6-0.2-0.9c3.3-6.2,9.7-9.7,13.4-15.6c0.8-1.3,2.6-2.1,2.5-4
		c1.2-0.1,1.6,1,2.3,1.5c1.9,2.2-1.4,3.3-1,5.2c-2.1,2.3-4.1,4.6-6.2,7c-2.5,0.9-4.2,2.4-4.8,5c-1,1.2-2.8,1.7-3.3,3.5
		c-0.3-0.1-0.5-0.1-0.8-0.1C550.9,276.3,550.1,276,549.2,275.8z"/>
	<path fill="#232121" d="M586.9,278.1c-3-1.5-4.3-4.4-5.9-7.1c0,0,0.2-0.1,0.2-0.1c3.7,0.9,4.6,4.2,6,7L586.9,278.1z"/>
	<path fill="#363537" d="M555.2,274c0.6-2.6,2.4-4.2,4.8-5C559.5,271.7,557.9,273.3,555.2,274z"/>
	<path fill="#232121" d="M596.9,294.1c-2.8-1-3.1-3.7-4-6l0.2-0.2c2.8,1,3.1,3.7,4,6C597.1,293.9,596.9,294.1,596.9,294.1z"/>
	<path fill="#232121" d="M592.9,288.1c-1.8-1.2-2.5-3-3-5l0.3-0.2c2.5,0.8,2.8,2.9,3,5C593.1,287.9,592.9,288.1,592.9,288.1z"/>
	<path fill="#232121" d="M578.1,266.9c2.4,0.3,3,1.9,3,4c0,0-0.2,0.1-0.2,0.1c-1.5-1-2.8-2-3-4L578.1,266.9z"/>
	<path fill="#232121" d="M566.1,295.9c1.6,0.9,2.1,2.3,2,4c0,0-0.2,0.2-0.2,0.2c-1.6-0.8-2.1-2.3-2-4
		C565.9,296.1,566.1,295.9,566.1,295.9z"/>
	<path fill="#232121" d="M563.9,294.1c-1.2-0.7-1.9-1.6-2-3c0,0,0.2-0.2,0.2-0.2c1.8,0.2,2,1.6,2,3L563.9,294.1z"/>
	<path fill="#232121" d="M569.9,303.1c-1.2-0.7-1.8-1.7-2-3c0,0,0.2-0.2,0.2-0.2c1.8,0.2,2,1.6,2,3
		C570.1,302.9,569.9,303.1,569.9,303.1z"/>
	<path fill="#232121" d="M589.9,283.1c-1.2-0.7-1.9-1.6-2-3c0,0,0.3-0.2,0.3-0.2c1.8,0.2,1.9,1.6,2,3
		C590.1,282.9,589.9,283.1,589.9,283.1z"/>
	<path fill="#232121" d="M559.9,288.1c-1.2-0.1-1.9-0.8-2-2l0.2-0.2c1.2,0.1,1.9,0.8,2,2L559.9,288.1z"/>
	<path fill="#232121" d="M560.1,287.9c1.2,0.6,1.9,1.6,2,3c0,0-0.2,0.2-0.2,0.2c-1.2-0.6-1.9-1.6-2-3
		C559.9,288.1,560.1,287.9,560.1,287.9z"/>
	<path fill="#232121" d="M564.1,293.9c1.2,0.1,1.8,0.8,2,2c0,0-0.2,0.2-0.2,0.2c-1.2-0.2-1.8-0.9-2-2
		C563.9,294.1,564.1,293.9,564.1,293.9z"/>
	<path fill="#232121" d="M551.1,277.3c0.3,0,0.5,0,0.8,0.1c0.4,0.8,0.8,1.7,1.2,2.5l-0.2,0.2c-0.6-0.1-1.2-0.1-1.8-0.2
		C551.1,279.1,551.1,278.2,551.1,277.3z"/>
	<path fill="#232121" d="M598.1,295.9c0.3,0.7,0.7,1.3,1,2c0,0-0.2,0.2-0.2,0.2c-0.8-0.5-1-1.2-1-2L598.1,295.9z"/>
	<path fill="#232121" d="M597.9,296.1c-0.3-0.7-0.7-1.3-1-2c0,0,0.2-0.2,0.2-0.2c0.3,0.7,0.7,1.3,1,2
		C598.1,295.9,597.9,296.1,597.9,296.1z"/>
	<path fill="#232121" d="M570.9,305.1c-0.3-0.7-0.7-1.3-1-2c0,0,0.2-0.2,0.2-0.2c0.3,0.7,0.7,1.3,1,2
		C571.1,304.9,570.9,305.1,570.9,305.1z"/>
	<path fill="#232121" d="M573.1,260.9c0.3,0.3,0.5,0.6,0.8,1c-0.2,0.1-0.3,0.2-0.5,0.4c-0.1-0.4-0.3-0.8-0.4-1.2L573.1,260.9z"/>
	<path fill="#232121" d="M577.9,267.1c-0.2-0.4-0.5-0.8-0.7-1.2c0,0,0.2-0.2,0.4-0.3c0.2,0.4,0.4,0.8,0.6,1.3
		C578.1,266.9,577.9,267.1,577.9,267.1z"/>
	<path fill="#232121" d="M553.1,279.9c0.2,0.4,0.5,0.8,0.7,1.2c0,0-0.2,0.2-0.4,0.3c-0.2-0.4-0.4-0.8-0.6-1.3
		C552.9,280.1,553.1,279.9,553.1,279.9z"/>
	<path fill="#232121" d="M557.9,286.1c-0.2-0.4-0.5-0.8-0.7-1.2c0,0,0.2-0.2,0.4-0.3c0.2,0.4,0.4,0.8,0.6,1.3
		C558.1,285.9,557.9,286.1,557.9,286.1z"/>
	<path fill="#232121" d="M587.1,277.9c0.3,0.7,0.7,1.3,1,2c0,0-0.2,0.2-0.2,0.2c-0.3-0.7-0.7-1.3-1-2
		C586.9,278.1,587.1,277.9,587.1,277.9z"/>
	<path fill="#232121" d="M572.9,261.1c-0.3-0.3-0.7-0.7-1-1c0,0,0.1-0.1,0.1-0.1c0.3,0.3,0.7,0.7,1,1
		C573.1,260.9,572.9,261.1,572.9,261.1z"/>
	<path fill="#232121" d="M358,451c2.4,1.9,5.3,3.5,5,7.3C360.9,456.1,357.7,454.8,358,451z"/>
	<path fill="#DBDBDB" d="M390.8,447.5c0.1,0.2,0.3,0.3,0.5,0.3c0.3,0.3,0.7,0.5,1,0.8c0.6,0.5,1.1,1,1.7,1.4
		c-5.6,6.6-12.2,12.2-17.2,19.4c-0.6-0.1-1.2-0.3-1.8-0.4c0,0,0.1,0.1,0.1,0.1c0.3-1.6-1.4-2-2-3.1
		C378.4,459.3,384.1,453,390.8,447.5z"/>
	<path fill="#48484B" d="M409.7,459.3c-0.1,0.7-0.2,1.4-0.3,2.2c-0.4-0.2-0.9-0.4-1.3-0.5c-2-2.4-5.6-2.9-7.1-5.9
		C404.8,454.6,406.5,458.5,409.7,459.3z"/>
	<path fill="#DBDBDB" d="M385.9,478.1c-1.4-0.2-3.1,0-3.5-2c0-0.3,0.5-0.9,0.9-0.9c1.9-0.2,2.6,1,2.9,2.7L385.9,478.1z"/>
	<path fill="#DBDBDB" d="M376.7,470.8c0.2,0,0.3,0,0.5,0c1.4,0.2,3,0.1,3.4,2c0,0.3-0.5,0.9-0.8,0.9
		C377.6,474,377.1,472.4,376.7,470.8C376.8,470.8,376.7,470.8,376.7,470.8z"/>
	<path fill="#DBDBDB" d="M391.9,482.1c-1.4,0-2.8,0-3-2c0,0,0.2-0.2,0.2-0.2c1.4,0.1,2.8,0.1,3,2
		C392.1,481.9,391.9,482.1,391.9,482.1z"/>
	<path fill="#DBDBDB" d="M386.1,477.9c1.4,0.1,2.8,0.1,3,2c0,0-0.2,0.2-0.2,0.2c-1.4-0.1-2.8-0.1-3-2
		C385.9,478.1,386.1,477.9,386.1,477.9z"/>
	<path fill="#232121" d="M374.9,469c0.6,0.1,1.2,0.3,1.8,0.4c0,0.5,0,1-0.1,1.4c0,0,0.1-0.1,0.1-0.1
		C375.8,470.6,374.3,470.9,374.9,469z"/>
	<path fill="#48484B" d="M399,454c0.5-0.9,1.1-1,1.9-0.4c0.5,0.4,0.9,0.9,0.1,1.4C399.9,455.4,399.4,454.7,399,454z"/>
	<path fill="#232121" d="M396,410c-2.8-0.6-2.9-2.8-3-5C395,406.1,395.7,407.9,396,410z"/>
	<path fill="#232121" d="M399,415c-2-1.1-3.3-2.6-3-5C398,411.1,399.3,412.6,399,415z"/>
	<path fill="#232121" d="M402.3,419c-1.9-0.7-3.1-1.9-3.3-4C401.7,415,401.9,417.1,402.3,419z"/>
	<path fill="#232121" d="M405,422c-1-0.5-1.1-1.3-1-2.3C404.7,420.3,405.1,421,405,422z"/>
	<path fill="#232121" d="M406,423c-0.3-0.3-0.7-0.7-1-1C405.3,422.3,405.7,422.7,406,423z"/>
	<path fill="#232121" d="M407,424c-0.3-0.3-0.7-0.7-1-1C406.3,423.3,406.7,423.7,407,424z"/>
	<path fill="#363537" d="M545,273c-1.6,0.5-1.5-0.8-1.9-1.6C544.3,271.3,545.6,271.1,545,273z"/>
	<path fill="#363537" d="M546.1,274c-0.8,0.1-1.3-0.1-1.1-1.1C546.1,272.5,546.7,272.7,546.1,274z"/>
	<path fill="#232121" d="M383,439.3c-1.6-1.5-3.8-2.6-4-5.3C382.1,434.4,383.2,436.4,383,439.3z"/>
	<path fill="#232121" d="M378,432c-1.4,0-2-0.7-2-2C377.4,430,378,430.7,378,432z"/>
	<path fill="#232121" d="M379,434c-0.9-0.4-1.1-1.1-1-2C378.9,432.4,379.1,433.1,379,434z"/>
	<path fill="#181616" d="M477.1,361.2c0,4.3-3.5,7.7-7.7,7.5c-4.2-0.2-7.5-3.8-7.4-7.9c0.2-4,3.5-7.2,7.5-7.2
		C473.9,353.5,477.2,356.9,477.1,361.2z"/>
</g>
</svg>
